<?xml version="1.0" encoding="UTF-8" standalone="no"?>
<!-- Created with Inkscape (http://www.inkscape.org/) -->

<svg
   xmlns:dc="http://purl.org/dc/elements/1.1/"
   xmlns:cc="http://creativecommons.org/ns#"
   xmlns:rdf="http://www.w3.org/1999/02/22-rdf-syntax-ns#"
   xmlns:svg="http://www.w3.org/2000/svg"
   xmlns="http://www.w3.org/2000/svg"
   xmlns:sodipodi="http://sodipodi.sourceforge.net/DTD/sodipodi-0.dtd"
   xmlns:inkscape="http://www.inkscape.org/namespaces/inkscape"
   width="744.09448819"
   height="1052.3622047"
   id="svg2"
   version="1.1"
   inkscape:version="0.48.1 r9760"
   sodipodi:docname="New document 1">
  <defs
     id="defs4" />
  <sodipodi:namedview
     id="base"
     pagecolor="#ffffff"
     bordercolor="#666666"
     borderopacity="1.0"
     inkscape:pageopacity="0.0"
     inkscape:pageshadow="2"
     inkscape:zoom="0.82327406"
     inkscape:cx="370.15454"
     inkscape:cy="555.01668"
     inkscape:document-units="px"
     inkscape:current-layer="layer1"
     showgrid="false"
     inkscape:window-width="1125"
     inkscape:window-height="644"
     inkscape:window-x="55"
     inkscape:window-y="0"
     inkscape:window-maximized="0" />
  <metadata
     id="metadata7">
    <rdf:RDF>
      <cc:Work
         rdf:about="">
        <dc:format>image/svg+xml</dc:format>
        <dc:type
           rdf:resource="http://purl.org/dc/dcmitype/StillImage" />
        <dc:title></dc:title>
      </cc:Work>
    </rdf:RDF>
  </metadata>
  <g
     inkscape:label="Layer 1"
     inkscape:groupmode="layer"
     id="layer1">
    <path
       style="fill:none;stroke:#000000;stroke-width:10;stroke-miterlimit:4;stroke-opacity:0.16888888;stroke-dasharray:none"
       d="M 401.4375 369.6875 C 395.99399 369.6875 391.37383 373.11159 389.53125 377.90625 C 356.44426 375.58938 318.21196 392.01169 350.34375 427.71875 L 262.03125 597.09375 C 253.32038 613.8011 277.18941 640.84375 296.03125 640.84375 L 464.3125 640.84375 C 483.15434 640.84375 506.82482 613.91893 498.34375 597.09375 L 412.96875 427.71875 C 434.37788 406.34178 429.05422 391.74604 414.125 384.0625 C 414.18943 383.5424 414.21875 383.00629 414.21875 382.46875 C 414.21875 375.40985 408.4964 369.6875 401.4375 369.6875 z "
       id="rect2985" />
    <path
       sodipodi:type="arc"
       style="fill:none;stroke:#000000;stroke-width:10;stroke-miterlimit:4;stroke-opacity:0.16888888;stroke-dasharray:none"
       id="path4380"
       sodipodi:cx="426.34647"
       sodipodi:cy="325.99411"
       sodipodi:rx="17.005272"
       sodipodi:ry="17.005272"
       d="m 443.35174,325.99411 a 17.005272,17.005272 0 1 1 -34.01055,0 17.005272,17.005272 0 1 1 34.01055,0 z"
       transform="translate(-1.2146623,10.931961)" />
    <path
       sodipodi:type="arc"
       style="fill:none;stroke:#000000;stroke-width:10;stroke-miterlimit:4;stroke-opacity:0.16888888;stroke-dasharray:none"
       id="path4382"
       sodipodi:cx="373.50867"
       sodipodi:cy="267.08298"
       sodipodi:rx="28.544565"
       sodipodi:ry="28.544565"
       d="m 402.05323,267.08298 a 28.544565,28.544565 0 1 1 -57.08913,0 28.544565,28.544565 0 1 1 57.08913,0 z"
       transform="translate(-1.2146623,10.931961)" />
  </g>
</svg>
