<svg xmlns="http://www.w3.org/2000/svg" xmlns:xlink="http://www.w3.org/1999/xlink" version="1.1" x="0px" y="0px" viewBox="0 0 100 125" enable-background="new 0 0 100 100" xml:space="preserve"><g><path d="M49.986,18.032c-17.459,0-31.61,14.328-31.61,31.968c0,17.641,14.151,31.969,31.61,31.969   c17.458,0,31.638-14.328,31.638-31.969C81.624,32.359,67.444,18.032,49.986,18.032L49.986,18.032z M49.986,19.646   c16.617,0,30.068,13.563,30.068,30.354c0,16.792-13.451,30.383-30.068,30.383c-16.618,0-30.041-13.592-30.041-30.383   C19.945,33.209,33.368,19.646,49.986,19.646L49.986,19.646z M50.07,25.932c-4.092,0-7.09,1.84-8.967,4.333   c-1.85,2.52-2.691,5.663-2.662,8.438c0,0.425,0.363,0.821,0.784,0.821s0.813-0.396,0.813-0.821   c-0.028-2.435,0.729-5.295,2.325-7.476c1.626-2.18,4.064-3.709,7.707-3.709c4.848,0,8.07,2.804,9.248,6.371   c1.204,3.568,0.336,7.929-3.392,11.128c-1.484,1.246-3.166,2.407-4.483,3.85c-1.316,1.444-2.27,3.229-2.214,5.465c0,0,0,0,0,0.029   c-0.028,4.898-0.084,5.889-0.084,5.889c0,0.396,0.364,0.793,0.757,0.822c0.42,0,0.813-0.369,0.813-0.793   c0,0,0.056-0.963,0.084-5.918c0-0.029,0-0.029,0-0.029c-0.056-1.783,0.645-3.086,1.821-4.36c1.149-1.275,2.774-2.436,4.315-3.738   c4.204-3.568,5.297-8.693,3.896-12.855C59.43,29.188,55.507,25.932,50.07,25.932L50.07,25.932z M49.986,67.584   c-0.869,0-1.569,0.736-1.569,1.586c0,0.877,0.7,1.613,1.569,1.613s1.569-0.736,1.569-1.613   C51.556,68.32,50.855,67.584,49.986,67.584L49.986,67.584z"/></g><text x="0" y="115" fill="#000000" font-size="5px" font-weight="bold" font-family="'Helvetica Neue', Helvetica, Arial-Unicode, Arial, Sans-serif">Created by artworkbean</text><text x="0" y="120" fill="#000000" font-size="5px" font-weight="bold" font-family="'Helvetica Neue', Helvetica, Arial-Unicode, Arial, Sans-serif">from the Noun Project</text></svg>