<svg xmlns="http://www.w3.org/2000/svg" xmlns:xlink="http://www.w3.org/1999/xlink" version="1.1" x="0px" y="0px" viewBox="0 0 100 125" enable-background="new 0 0 100 100" xml:space="preserve"><g><path d="M50.014,18.032c-11.068,0-19.99,9.033-19.99,20.217v6.399h-2.796c-2.371,0-4.319,1.954-4.319,4.332v28.656   c0,2.379,1.948,4.332,4.319,4.332H72.8c2.372,0,4.292-1.953,4.292-4.332V48.98c0-2.378-1.92-4.332-4.292-4.332h-2.852v-6.399   C69.948,27.064,61.054,18.032,50.014,18.032L50.014,18.032z M50.014,19.646c10.165,0,18.354,8.268,18.354,18.604v6.399H31.633   v-6.399C31.633,27.914,39.821,19.646,50.014,19.646L50.014,19.646z M27.228,46.262H72.8c1.497,0,2.711,1.189,2.711,2.718v28.656   c0,1.529-1.214,2.746-2.711,2.746H27.228c-1.524,0-2.738-1.217-2.738-2.746V48.98C24.489,47.452,25.703,46.262,27.228,46.262   L27.228,46.262z M50.014,53.199c-3.275,0-5.9,2.662-5.9,5.918c0,2.068,1.072,3.852,2.682,4.928v6.172   c0,1.756,1.44,3.201,3.219,3.201c1.751,0,3.19-1.445,3.19-3.201v-6.172c1.609-1.076,2.711-2.859,2.711-4.928   C55.915,55.861,53.261,53.199,50.014,53.199L50.014,53.199z M50.014,54.785c2.372,0,4.292,1.926,4.292,4.332   c0,1.672-0.903,3.059-2.259,3.795c-0.254,0.141-0.424,0.424-0.424,0.736v6.568c0,0.906-0.706,1.615-1.609,1.615   s-1.638-0.709-1.638-1.615v-6.568c0-0.313-0.169-0.596-0.423-0.736c-1.355-0.736-2.259-2.123-2.259-3.795   C45.694,56.711,47.614,54.785,50.014,54.785L50.014,54.785z"/></g><text x="0" y="115" fill="#000000" font-size="5px" font-weight="bold" font-family="'Helvetica Neue', Helvetica, Arial-Unicode, Arial, Sans-serif">Created by artworkbean</text><text x="0" y="120" fill="#000000" font-size="5px" font-weight="bold" font-family="'Helvetica Neue', Helvetica, Arial-Unicode, Arial, Sans-serif">from the Noun Project</text></svg>