<svg xmlns="http://www.w3.org/2000/svg" xmlns:xlink="http://www.w3.org/1999/xlink" version="1.1" x="0px" y="0px" viewBox="0 0 100 125" enable-background="new 0 0 100 100" xml:space="preserve"><g><path d="M47.488,23.359c-14.803,0-26.837,11.946-26.837,26.641s12.034,26.641,26.837,26.641c12.938,0,23.757-9.114,26.244-21.257   c0.17-0.42-0.142-0.953-0.564-1.037c-0.452-0.084-0.933,0.28-0.961,0.729C69.833,66.461,59.663,75.07,47.488,75.07   c-13.955,0-25.255-11.217-25.255-25.07c0-13.825,11.3-25.042,25.255-25.042c11.893,0,21.836,8.16,24.52,19.153l-7.514-4.01   c-0.367-0.253-0.933-0.112-1.158,0.28c-0.198,0.393,0,0.953,0.424,1.121l9.039,4.852c0.368,0.196,0.876,0.057,1.074-0.309   l5.367-8.693c0.339-0.504-0.17-1.29-0.791-1.205c-0.227,0.056-0.424,0.196-0.537,0.393l-4.406,7.066   C70.624,31.969,60.059,23.359,47.488,23.359L47.488,23.359z"/></g><text x="0" y="115" fill="#000000" font-size="5px" font-weight="bold" font-family="'Helvetica Neue', Helvetica, Arial-Unicode, Arial, Sans-serif">Created by artworkbean</text><text x="0" y="120" fill="#000000" font-size="5px" font-weight="bold" font-family="'Helvetica Neue', Helvetica, Arial-Unicode, Arial, Sans-serif">from the Noun Project</text></svg>