<?xml version="1.0" encoding="UTF-8" standalone="no"?>
<!-- Created with Inkscape (http://www.inkscape.org/) -->

<svg
   xmlns:dc="http://purl.org/dc/elements/1.1/"
   xmlns:cc="http://creativecommons.org/ns#"
   xmlns:rdf="http://www.w3.org/1999/02/22-rdf-syntax-ns#"
   xmlns:svg="http://www.w3.org/2000/svg"
   xmlns="http://www.w3.org/2000/svg"
   xmlns:xlink="http://www.w3.org/1999/xlink"
   xmlns:sodipodi="http://sodipodi.sourceforge.net/DTD/sodipodi-0.dtd"
   xmlns:inkscape="http://www.inkscape.org/namespaces/inkscape"
   width="210mm"
   height="297mm"
   viewBox="0 0 744.09448819 1052.3622047"
   id="svg2"
   version="1.1"
   inkscape:version="0.91 r13725"
   sodipodi:docname="mock.svg">
  <defs
     id="defs4">
    <linearGradient
       inkscape:collect="always"
       id="linearGradient5004">
      <stop
         id="stop5008"
         offset="0"
         style="stop-color:#54569c;stop-opacity:0;" />
      <stop
         id="stop5006"
         offset="1"
         style="stop-color:#54569c;stop-opacity:1;" />
    </linearGradient>
    <linearGradient
       inkscape:collect="always"
       id="linearGradient4320">
      <stop
         style="stop-color:#fafafa;stop-opacity:1;"
         offset="0"
         id="stop4322" />
      <stop
         style="stop-color:#fafafa;stop-opacity:0;"
         offset="1"
         id="stop4324" />
    </linearGradient>
    <linearGradient
       inkscape:collect="always"
       id="linearGradient4186">
      <stop
         style="stop-color:#dbdbdb;stop-opacity:1;"
         offset="0"
         id="stop4188" />
      <stop
         style="stop-color:#dbdbdb;stop-opacity:0;"
         offset="1"
         id="stop4190" />
    </linearGradient>
    <linearGradient
       inkscape:collect="always"
       xlink:href="#linearGradient4186"
       id="linearGradient4214"
       gradientUnits="userSpaceOnUse"
       gradientTransform="matrix(0.65714284,0,0,0.99962798,-1164.0378,240.19302)"
       x1="499.61432"
       y1="472.36221"
       x2="560.60917"
       y2="472.36221" />
    <linearGradient
       inkscape:collect="always"
       xlink:href="#linearGradient4320"
       id="linearGradient5084"
       gradientUnits="userSpaceOnUse"
       x1="479.99445"
       y1="470.9509"
       x2="520.07677"
       y2="470.9509"
       gradientTransform="translate(-1342.8571,71.428576)" />
    <radialGradient
       inkscape:collect="always"
       xlink:href="#linearGradient5004"
       id="radialGradient5010"
       cx="365.71429"
       cy="538.07648"
       fx="365.71429"
       fy="538.07648"
       r="840"
       gradientUnits="userSpaceOnUse" />
  </defs>
  <sodipodi:namedview
     id="base"
     pagecolor="#ffffff"
     bordercolor="#666666"
     borderopacity="1.0"
     inkscape:pageopacity="0"
     inkscape:pageshadow="2"
     inkscape:zoom="0.64"
     inkscape:cx="392.81967"
     inkscape:cy="479.35418"
     inkscape:document-units="px"
     inkscape:current-layer="layer1"
     showgrid="false"
     showguides="true"
     inkscape:guide-bbox="true"
     inkscape:window-width="1357"
     inkscape:window-height="904"
     inkscape:window-x="247"
     inkscape:window-y="0"
     inkscape:window-maximized="0"
     inkscape:snap-grids="true"
     inkscape:showpageshadow="false"
     showborder="false">
    <inkscape:grid
       type="xygrid"
       id="grid4152" />
  </sodipodi:namedview>
  <metadata
     id="metadata7">
    <rdf:RDF>
      <cc:Work
         rdf:about="">
        <dc:format>image/svg+xml</dc:format>
        <dc:type
           rdf:resource="http://purl.org/dc/dcmitype/StillImage" />
        <dc:title />
      </cc:Work>
    </rdf:RDF>
  </metadata>
  <g
     inkscape:label="Layer 1"
     inkscape:groupmode="layer"
     id="layer1">
    <rect
       y="-358.17352"
       x="-530.53571"
       height="1736.25"
       width="1736.25"
       id="rect5014"
       style="fill:#b4b5c8;fill-opacity:1;fill-rule:nonzero;stroke:none;stroke-opacity:1" />
    <rect
       style="fill:url(#radialGradient5010);fill-opacity:1;fill-rule:nonzero;stroke:none;stroke-opacity:1"
       id="rect5234"
       width="1680"
       height="1680"
       x="-474.28571"
       y="-301.92352" />
    <rect
       style="fill:#f6bb61;fill-opacity:1"
       id="rect4154"
       width="499.93741"
       height="119.99617"
       x="120.04948"
       y="412.36563" />
    <rect
       style="fill:#fafafa;fill-opacity:1"
       id="rect4174"
       width="371.25134"
       height="117.09822"
       x="129.0625"
       y="412.40182" />
    <rect
       y="309.24063"
       x="120.04948"
       height="66.24617"
       width="499.93741"
       id="rect4194"
       style="fill:#ffffff;fill-opacity:1"
       ry="5.5170832" />
    <rect
       style="fill:#fffa88;fill-opacity:1"
       id="rect4208"
       width="499.93741"
       height="119.99617"
       x="-1195.6648"
       y="652.36566" />
    <rect
       style="fill:#dbdbdb;fill-opacity:1"
       id="rect4210"
       width="340.00134"
       height="119.95536"
       x="-1175.7144"
       y="652.40186" />
    <rect
       y="652.40179"
       x="-835.71985"
       height="119.95536"
       width="40.082329"
       id="rect4212"
       style="fill:url(#linearGradient4214);fill-opacity:1" />
    <rect
       y="532.36566"
       x="120.04948"
       height="119.99617"
       width="499.93741"
       id="rect4224"
       style="fill:#ed3a44;fill-opacity:1" />
    <rect
       y="532.40186"
       x="129.0625"
       height="117.09822"
       width="371.25134"
       id="rect4226"
       style="fill:#fafafa;fill-opacity:1" />
    <rect
       style="fill:#1fd2cc;fill-opacity:1"
       id="rect4232"
       width="499.93741"
       height="119.99617"
       x="120.04948"
       y="652.36566" />
    <rect
       style="fill:#fafafa;fill-opacity:1"
       id="rect4234"
       width="371.25134"
       height="117.09822"
       x="129.0625"
       y="652.40186" />
    <g
       transform="matrix(0.15661815,0,0,0.15661815,511.20261,596.41204)"
       id="layer1-8"
       inkscape:label="Layer 1"
       style="fill:#ffffff;fill-opacity:1">
      <path
         sodipodi:nodetypes="czcczcc"
         inkscape:connector-curvature="0"
         id="rect6416"
         d="m 32.408988,566.97418 c 0,0 4.000007,-16 137.142862,-16 133.14285,0 133.14285,48 133.14285,48 l 0,291.42856 c 0,0 0,-48 -133.14285,-48 -133.142855,0 -137.142862,16 -137.142862,16 z"
         style="fill:#ffffff;fill-opacity:1" />
      <path
         style="fill:#ffffff;fill-opacity:1"
         d="m 599.85075,566.50497 c 0,0 -4.01288,-16.05152 -137.58447,-16.05152 -133.57158,0 -133.57158,48.10304 -133.57158,48.10304 l 0,292.36698 c 0,0 0,-48.10304 133.57158,-48.10304 133.57159,0 137.58447,16.05152 137.58447,16.05152 z"
         id="path6419"
         inkscape:connector-curvature="0"
         sodipodi:nodetypes="czcczcc" />
      <path
         sodipodi:nodetypes="ccscccsccccs"
         inkscape:connector-curvature="0"
         d="m 32.408203,897.10261 0,23.92969 c 0,0 4.001676,-16 137.144527,-16 133.14285,0 133.14258,32 133.14258,32 l 0,-37.92969 z M 169.55273,868.163 c -133.142851,0 -137.144527,16 -137.144527,16 l 0,19.00195 270.287107,0 0,-3.00195 c 0,0 2.7e-4,-32 -133.14258,-32 z"
         style="fill:#ffffff;fill-opacity:1"
         id="path6421" />
      <path
         sodipodi:nodetypes="ccscccsccccs"
         inkscape:connector-curvature="0"
         d="m 328.69531,899.10261 0,38.45117 c 0,0 -0.001,-32.10352 133.57031,-32.10352 133.5716,0 137.58594,16.05079 137.58594,16.05079 l 0,-24.39844 z m 133.57031,-31.46109 c -133.57158,0 -133.57031,32.10351 -133.57031,32.10351 l 0,3.41992 271.15625,0 0,-19.47265 c 0,0 -4.01435,-16.05078 -137.58594,-16.05078 z"
         style="fill:#ffffff;fill-opacity:1"
         id="path6423" />
      <path
         sodipodi:nodetypes="czcczcc"
         inkscape:connector-curvature="0"
         id="rect6444"
         d="m 301.677,899.30924 c 0,0 -1e-5,10 14.01499,10 14.01501,0 14.01501,-10 14.01501,-10 l 0,38.05112 c 0,0 0,4 -14.01501,4 -14.015,0 -14.01499,-4 -14.01499,-4 z"
         style="fill:#ffffff;fill-opacity:1" />
    </g>
    <g
       transform="matrix(0.1634624,0,0,0.1634624,508.52828,353.30684)"
       id="layer1-4"
       inkscape:label="Layer 1"
       style="fill:#ffffff;fill-opacity:1">
      <path
         inkscape:connector-curvature="0"
         id="rect7020"
         d="m 135.83502,825.56131 -37.852319,85.38867 34.286399,34.28639 85.38867,-37.85231 -81.82275,-81.82275 z m -43.435979,97.98536 -21.71867,48.992 48.991999,-21.7186 -27.273329,-27.2734 z"
         style="fill:#ffffff;fill-opacity:1" />
      <path
         inkscape:connector-curvature="0"
         id="rect7022"
         d="m 148.96621,812.43012 15.15307,15.15307 328.29918,-328.29918 -15.15307,-15.15307 -328.29918,328.29918 z m 24.24465,24.24465 31.31433,31.31433 328.29918,-328.29918 -31.31433,-31.31433 -328.29918,328.29918 z m 40.4059,40.4059 17.1722,17.1722 328.29918,-328.29918 -17.1722,-17.1722 -328.29918,328.29918 z"
         style="fill:#ffffff;fill-opacity:1" />
    </g>
    <rect
       y="483.79419"
       x="-1222.8077"
       height="119.99617"
       width="499.93741"
       id="rect5072"
       style="fill:#88ff88;fill-opacity:1" />
    <rect
       y="483.83038"
       x="-1202.8572"
       height="117.09822"
       width="340.00134"
       id="rect5074"
       style="fill:#fafafa;fill-opacity:1" />
    <rect
       style="fill:url(#linearGradient5084);fill-opacity:1"
       id="rect5076"
       width="40.082329"
       height="117.09822"
       x="-862.86267"
       y="483.83035" />
    <g
       style="fill:#ffffff;fill-opacity:1"
       inkscape:label="Layer 1"
       id="g5078"
       transform="matrix(0.1634624,0,0,0.1634624,-834.32886,424.73542)">
      <path
         style="fill:#ffffff;fill-opacity:1"
         d="m 135.83502,825.56131 -37.852319,85.38867 34.286399,34.28639 85.38867,-37.85231 -81.82275,-81.82275 z m -43.435979,97.98536 -21.71867,48.992 48.991999,-21.7186 -27.273329,-27.2734 z"
         id="path5080"
         inkscape:connector-curvature="0" />
      <path
         style="fill:#ffffff;fill-opacity:1"
         d="m 148.96621,812.43012 15.15307,15.15307 328.29918,-328.29918 -15.15307,-15.15307 -328.29918,328.29918 z m 24.24465,24.24465 31.31433,31.31433 328.29918,-328.29918 -31.31433,-31.31433 -328.29918,328.29918 z m 40.4059,40.4059 17.1722,17.1722 328.29918,-328.29918 -17.1722,-17.1722 -328.29918,328.29918 z"
         id="path5082"
         inkscape:connector-curvature="0" />
    </g>
    <circle
       style="fill:#e2e2e2;fill-opacity:1"
       id="path5086"
       cx="560"
       cy="590.93365"
       r="50" />
    <rect
       y="772.35779"
       x="120.04948"
       height="119.99617"
       width="499.93741"
       id="rect5088"
       style="fill:#f6bb61;fill-opacity:1" />
    <rect
       y="772.39398"
       x="129.0625"
       height="117.09822"
       width="371.25134"
       id="rect5090"
       style="fill:#fafafa;fill-opacity:1" />
    <rect
       style="fill:#ed3a44;fill-opacity:1"
       id="rect5094"
       width="499.93741"
       height="119.99617"
       x="120.04948"
       y="892.35779" />
    <rect
       style="fill:#fafafa;fill-opacity:1"
       id="rect5096"
       width="371.25134"
       height="117.09822"
       x="129.0625"
       y="892.39398" />
    <rect
       y="1012.3578"
       x="120.04948"
       height="119.99617"
       width="499.93741"
       id="rect5100"
       style="fill:#1fd2cc;fill-opacity:1" />
    <rect
       y="1012.394"
       x="129.0625"
       height="118.88393"
       width="371.25134"
       id="rect5102"
       style="fill:#fafafa;fill-opacity:1" />
    <g
       style="fill:#ffffff;fill-opacity:1"
       inkscape:label="Layer 1"
       id="g5106"
       transform="matrix(0.15661815,0,0,0.15661815,511.20261,956.40414)">
      <path
         style="fill:#ffffff;fill-opacity:1"
         d="m 32.408988,566.97418 c 0,0 4.000007,-16 137.142862,-16 133.14285,0 133.14285,48 133.14285,48 l 0,291.42856 c 0,0 0,-48 -133.14285,-48 -133.142855,0 -137.142862,16 -137.142862,16 z"
         id="path5108"
         inkscape:connector-curvature="0"
         sodipodi:nodetypes="czcczcc" />
      <path
         sodipodi:nodetypes="czcczcc"
         inkscape:connector-curvature="0"
         id="path5110"
         d="m 599.85075,566.50497 c 0,0 -4.01288,-16.05152 -137.58447,-16.05152 -133.57158,0 -133.57158,48.10304 -133.57158,48.10304 l 0,292.36698 c 0,0 0,-48.10304 133.57158,-48.10304 133.57159,0 137.58447,16.05152 137.58447,16.05152 z"
         style="fill:#ffffff;fill-opacity:1" />
      <path
         id="path5112"
         style="fill:#ffffff;fill-opacity:1"
         d="m 32.408203,897.10261 0,23.92969 c 0,0 4.001676,-16 137.144527,-16 133.14285,0 133.14258,32 133.14258,32 l 0,-37.92969 z M 169.55273,868.163 c -133.142851,0 -137.144527,16 -137.144527,16 l 0,19.00195 270.287107,0 0,-3.00195 c 0,0 2.7e-4,-32 -133.14258,-32 z"
         inkscape:connector-curvature="0"
         sodipodi:nodetypes="ccscccsccccs" />
      <path
         id="path5114"
         style="fill:#ffffff;fill-opacity:1"
         d="m 328.69531,899.10261 0,38.45117 c 0,0 -0.001,-32.10352 133.57031,-32.10352 133.5716,0 137.58594,16.05079 137.58594,16.05079 l 0,-24.39844 z m 133.57031,-31.46109 c -133.57158,0 -133.57031,32.10351 -133.57031,32.10351 l 0,3.41992 271.15625,0 0,-19.47265 c 0,0 -4.01435,-16.05078 -137.58594,-16.05078 z"
         inkscape:connector-curvature="0"
         sodipodi:nodetypes="ccscccsccccs" />
      <path
         style="fill:#ffffff;fill-opacity:1"
         d="m 301.677,899.30924 c 0,0 -1e-5,10 14.01499,10 14.01501,0 14.01501,-10 14.01501,-10 l 0,38.05112 c 0,0 0,4 -14.01501,4 -14.015,0 -14.01499,-4 -14.01499,-4 z"
         id="path5116"
         inkscape:connector-curvature="0"
         sodipodi:nodetypes="czcczcc" />
    </g>
    <g
       style="fill:#ffffff;fill-opacity:1"
       inkscape:label="Layer 1"
       id="g5118"
       transform="matrix(0.1634624,0,0,0.1634624,508.52828,713.29894)">
      <path
         style="fill:#ffffff;fill-opacity:1"
         d="m 135.83502,825.56131 -37.852319,85.38867 34.286399,34.28639 85.38867,-37.85231 -81.82275,-81.82275 z m -43.435979,97.98536 -21.71867,48.992 48.991999,-21.7186 -27.273329,-27.2734 z"
         id="path5120"
         inkscape:connector-curvature="0" />
      <path
         style="fill:#ffffff;fill-opacity:1"
         d="m 148.96621,812.43012 15.15307,15.15307 328.29918,-328.29918 -15.15307,-15.15307 -328.29918,328.29918 z m 24.24465,24.24465 31.31433,31.31433 328.29918,-328.29918 -31.31433,-31.31433 -328.29918,328.29918 z m 40.4059,40.4059 17.1722,17.1722 328.29918,-328.29918 -17.1722,-17.1722 -328.29918,328.29918 z"
         id="path5122"
         inkscape:connector-curvature="0" />
    </g>
    <circle
       r="50"
       cy="950.92578"
       cx="560"
       id="circle5124"
       style="fill:#e2e2e2;fill-opacity:1" />
    <text
       xml:space="preserve"
       style="font-style:normal;font-weight:normal;font-size:40px;line-height:125%;font-family:Sans;text-align:center;letter-spacing:0px;word-spacing:0px;text-anchor:middle;fill:#54569c;fill-opacity:1;stroke:none;stroke-width:1px;stroke-linecap:butt;stroke-linejoin:miter;stroke-opacity:1;"
       x="380"
       y="352.36221"
       id="text5132"
       sodipodi:linespacing="125%"><tspan
         sodipodi:role="line"
         id="tspan5134"
         x="380"
         y="352.36221"
         style="-inkscape-font-specification:Calibri;font-family:Calibri;font-weight:bold;font-style:normal;font-stretch:normal;font-variant:normal;fill:#54569c;fill-opacity:1">New Story</tspan></text>
    <g
       transform="matrix(0.10277345,0,0,0.10277345,118.6217,164.86976)"
       id="layer1-0"
       inkscape:label="Layer 1"
       style="fill:#ffffff;fill-opacity:1">
      <path
         id="rect5836"
         transform="translate(0,427.36222)"
         d="m 123.69336,288.24219 0,279.61523 134.88672,0 0,-154.35547 107.36914,0 0,154.35547 134.88672,0 0,-279.61523 -377.14258,0 z"
         style="fill:#ffffff;fill-opacity:1"
         inkscape:connector-curvature="0" />
      <path
         sodipodi:nodetypes="cccc"
         inkscape:connector-curvature="0"
         id="rect5838"
         d="m 312.2654,500.89878 249.18058,271.50327 -498.361153,0 z"
         style="fill:#ffffff;fill-opacity:1" />
    </g>
    <text
       sodipodi:linespacing="125%"
       id="text5349"
       y="255.21936"
       x="254.94978"
       style="font-style:normal;font-weight:normal;font-size:40px;line-height:125%;font-family:Sans;text-align:start;letter-spacing:0px;word-spacing:0px;text-anchor:start;fill:#ffffff;fill-opacity:1;stroke:none;stroke-width:1px;stroke-linecap:butt;stroke-linejoin:miter;stroke-opacity:1"
       xml:space="preserve"><tspan
         style="font-style:normal;font-variant:normal;font-weight:normal;font-stretch:normal;font-family:Calibri;-inkscape-font-specification:Calibri;text-align:start;text-anchor:start;fill:#ffffff;fill-opacity:1"
         y="255.21936"
         x="254.94978"
         id="tspan5351"
         sodipodi:role="line">Sean Kelleher</tspan></text>
    <g
       transform="matrix(0.1016129,0,0,0.12211516,558.85848,149.86077)"
       id="layer1-9"
       inkscape:label="Layer 1"
       style="fill:#ffffff;fill-opacity:1">
      <path
         inkscape:connector-curvature="0"
         id="rect4136"
         d="m 47.42773,535.21964 0,402.85742 402.85743,0 0,-143.84375 -54.28516,0 0,89.55664 -294.28516,0 0,-294.28515 294.28516,0 0,89.55859 54.28516,0 0,-143.84375 -402.85743,0 z"
         style="fill:#ffffff;fill-opacity:1" />
      <rect
         y="706.64795"
         x="244.85715"
         height="59.999992"
         width="277.14282"
         id="rect4143"
         style="fill:#ffffff;fill-opacity:1" />
      <path
         sodipodi:nodetypes="cccc"
         inkscape:connector-curvature="0"
         id="rect4149"
         d="m 483.14287,670.93366 118.57141,65.7143 -118.57141,65.71427 z"
         style="fill:#ffffff;fill-opacity:1" />
    </g>
    <text
       xml:space="preserve"
       style="font-style:normal;font-weight:normal;font-size:40px;line-height:125%;font-family:Sans;letter-spacing:0px;word-spacing:0px;fill:#f6bb61;fill-opacity:1;stroke:none;stroke-width:1px;stroke-linecap:butt;stroke-linejoin:miter;stroke-opacity:1;"
       x="161.42857"
       y="460.93365"
       id="text5416"
       sodipodi:linespacing="125%"><tspan
         sodipodi:role="line"
         id="tspan5418"
         x="161.42857"
         y="460.93365"
         style="font-style:normal;font-variant:normal;font-weight:bold;font-stretch:normal;font-family:Calibri;-inkscape-font-specification:Calibri;fill:#f6bb61;fill-opacity:1;">The Princess</tspan></text>
    <text
       sodipodi:linespacing="125%"
       id="text5420"
       y="512.36224"
       x="261.67859"
       style="font-style:normal;font-weight:normal;font-size:40px;line-height:125%;font-family:Sans;letter-spacing:0px;word-spacing:0px;fill:#815512;fill-opacity:1;stroke:none;stroke-width:1px;stroke-linecap:butt;stroke-linejoin:miter;stroke-opacity:1"
       xml:space="preserve"><tspan
         style="font-style:italic;font-variant:normal;font-weight:normal;font-stretch:normal;font-size:30px;font-family:Calibri;-inkscape-font-specification:Calibri;fill:#815512;fill-opacity:1"
         y="512.36224"
         x="261.67859"
         id="tspan5422"
         sodipodi:role="line">Your turn to write</tspan></text>
    <text
       sodipodi:linespacing="125%"
       id="text5444"
       y="699.50507"
       x="161.42857"
       style="font-style:normal;font-weight:normal;font-size:40px;line-height:125%;font-family:Sans;letter-spacing:0px;word-spacing:0px;fill:#1fd2cc;fill-opacity:1;stroke:none;stroke-width:1px;stroke-linecap:butt;stroke-linejoin:miter;stroke-opacity:1;"
       xml:space="preserve"><tspan
         style="font-style:normal;font-variant:normal;font-weight:bold;font-stretch:normal;font-family:Calibri;-inkscape-font-specification:Calibri;fill:#1fd2cc;fill-opacity:1;"
         y="699.50507"
         x="161.42857"
         id="tspan5446"
         sodipodi:role="line">The Princess</tspan></text>
    <text
       sodipodi:linespacing="125%"
       id="text5468"
       y="579.50507"
       x="161.42859"
       style="font-style:normal;font-weight:normal;font-size:40px;line-height:125%;font-family:Sans;letter-spacing:0px;word-spacing:0px;fill:#ed3a44;fill-opacity:1;stroke:none;stroke-width:1px;stroke-linecap:butt;stroke-linejoin:miter;stroke-opacity:1;"
       xml:space="preserve"><tspan
         style="font-style:normal;font-variant:normal;font-weight:bold;font-stretch:normal;font-family:Calibri;-inkscape-font-specification:Calibri;fill:#ed3a44;fill-opacity:1;"
         y="579.50507"
         x="161.42859"
         id="tspan5470"
         sodipodi:role="line">The Princess</tspan></text>
    <text
       xml:space="preserve"
       style="font-style:normal;font-weight:normal;font-size:40px;line-height:125%;font-family:Sans;letter-spacing:0px;word-spacing:0px;fill:#710a10;fill-opacity:1;stroke:none;stroke-width:1px;stroke-linecap:butt;stroke-linejoin:miter;stroke-opacity:1"
       x="336.85715"
       y="630.93365"
       id="text5472"
       sodipodi:linespacing="125%"><tspan
         sodipodi:role="line"
         id="tspan5474"
         x="336.85715"
         y="630.93365"
         style="font-style:italic;font-variant:normal;font-weight:normal;font-stretch:normal;font-size:30px;font-family:Calibri;-inkscape-font-specification:Calibri;fill:#710a10;fill-opacity:1">Waiting for</tspan></text>
    <text
       xml:space="preserve"
       style="font-style:normal;font-weight:normal;font-size:40px;line-height:125%;font-family:Sans;letter-spacing:0px;word-spacing:0px;fill:#0f6662;fill-opacity:1;stroke:none;stroke-width:1px;stroke-linecap:butt;stroke-linejoin:miter;stroke-opacity:1"
       x="178.86607"
       y="750.93365"
       id="text5628"
       sodipodi:linespacing="125%"><tspan
         sodipodi:role="line"
         id="tspan5630"
         x="178.86607"
         y="750.93365"
         style="font-style:italic;font-variant:normal;font-weight:normal;font-stretch:normal;font-size:30px;font-family:Calibri;-inkscape-font-specification:Calibri;fill:#0f6662;fill-opacity:1">Finished! Read this story</tspan></text>
    <text
       sodipodi:linespacing="125%"
       id="text5660"
       y="750.93365"
       x="161.42857"
       style="font-style:normal;font-weight:normal;font-size:40px;line-height:125%;font-family:Sans;letter-spacing:0px;word-spacing:0px;fill:#88fffd;fill-opacity:1;stroke:none;stroke-width:1px;stroke-linecap:butt;stroke-linejoin:miter;stroke-opacity:1"
       xml:space="preserve"><tspan
         style="font-style:italic;font-variant:normal;font-weight:normal;font-stretch:normal;font-size:30px;font-family:Calibri;-inkscape-font-specification:Calibri;fill:#88fffd;fill-opacity:1"
         y="750.93365"
         x="161.42857"
         id="tspan5662"
         sodipodi:role="line" /></text>
    <text
       sodipodi:linespacing="125%"
       id="text5911"
       y="819.50507"
       x="161.42857"
       style="font-style:normal;font-weight:normal;font-size:40px;line-height:125%;font-family:Sans;letter-spacing:0px;word-spacing:0px;fill:#f6bb61;fill-opacity:1;stroke:none;stroke-width:1px;stroke-linecap:butt;stroke-linejoin:miter;stroke-opacity:1;"
       xml:space="preserve"><tspan
         style="font-style:normal;font-variant:normal;font-weight:bold;font-stretch:normal;font-family:Calibri;-inkscape-font-specification:Calibri;fill:#f6bb61;fill-opacity:1;"
         y="819.50507"
         x="161.42857"
         id="tspan5913"
         sodipodi:role="line">The Princess</tspan></text>
    <text
       xml:space="preserve"
       style="font-style:normal;font-weight:normal;font-size:40px;line-height:125%;font-family:Sans;letter-spacing:0px;word-spacing:0px;fill:#815512;fill-opacity:1;stroke:none;stroke-width:1px;stroke-linecap:butt;stroke-linejoin:miter;stroke-opacity:1"
       x="261.67859"
       y="870.93365"
       id="text5915"
       sodipodi:linespacing="125%"><tspan
         sodipodi:role="line"
         id="tspan5917"
         x="261.67859"
         y="870.93365"
         style="font-style:italic;font-variant:normal;font-weight:normal;font-stretch:normal;font-size:30px;font-family:Calibri;-inkscape-font-specification:Calibri;fill:#815512;fill-opacity:1">Your turn to write</tspan></text>
    <text
       xml:space="preserve"
       style="font-style:normal;font-weight:normal;font-size:40px;line-height:125%;font-family:Sans;letter-spacing:0px;word-spacing:0px;fill:#1fd2cc;fill-opacity:1;stroke:none;stroke-width:1px;stroke-linecap:butt;stroke-linejoin:miter;stroke-opacity:1;"
       x="161.42857"
       y="1058.0765"
       id="text5919"
       sodipodi:linespacing="125%"><tspan
         sodipodi:role="line"
         id="tspan5921"
         x="161.42857"
         y="1058.0765"
         style="font-style:normal;font-variant:normal;font-weight:bold;font-stretch:normal;font-family:Calibri;-inkscape-font-specification:Calibri;fill:#1fd2cc;fill-opacity:1;">The Princess</tspan></text>
    <text
       xml:space="preserve"
       style="font-style:normal;font-weight:normal;font-size:40px;line-height:125%;font-family:Sans;letter-spacing:0px;word-spacing:0px;fill:#ed3a44;fill-opacity:1;stroke:none;stroke-width:1px;stroke-linecap:butt;stroke-linejoin:miter;stroke-opacity:1;"
       x="161.42859"
       y="938.07648"
       id="text5923"
       sodipodi:linespacing="125%"><tspan
         sodipodi:role="line"
         id="tspan5925"
         x="161.42859"
         y="938.07648"
         style="font-style:normal;font-variant:normal;font-weight:bold;font-stretch:normal;font-family:Calibri;-inkscape-font-specification:Calibri;fill:#ed3a44;fill-opacity:1;">The Princess</tspan></text>
    <text
       sodipodi:linespacing="125%"
       id="text5927"
       y="989.50507"
       x="336.85715"
       style="font-style:normal;font-weight:normal;font-size:40px;line-height:125%;font-family:Sans;letter-spacing:0px;word-spacing:0px;fill:#710a10;fill-opacity:1;stroke:none;stroke-width:1px;stroke-linecap:butt;stroke-linejoin:miter;stroke-opacity:1"
       xml:space="preserve"><tspan
         style="font-style:italic;font-variant:normal;font-weight:normal;font-stretch:normal;font-size:30px;font-family:Calibri;-inkscape-font-specification:Calibri;fill:#710a10;fill-opacity:1"
         y="989.50507"
         x="336.85715"
         id="tspan5929"
         sodipodi:role="line">Waiting for</tspan></text>
    <text
       sodipodi:linespacing="125%"
       id="text5931"
       y="1109.5051"
       x="178.86607"
       style="font-style:normal;font-weight:normal;font-size:40px;line-height:125%;font-family:Sans;letter-spacing:0px;word-spacing:0px;fill:#0f6662;fill-opacity:1;stroke:none;stroke-width:1px;stroke-linecap:butt;stroke-linejoin:miter;stroke-opacity:1"
       xml:space="preserve"><tspan
         style="font-style:italic;font-variant:normal;font-weight:normal;font-stretch:normal;font-size:30px;font-family:Calibri;-inkscape-font-specification:Calibri;fill:#0f6662;fill-opacity:1"
         y="1109.5051"
         x="178.86607"
         id="tspan5933"
         sodipodi:role="line">Finished! Read this story</tspan></text>
    <text
       xml:space="preserve"
       style="font-style:normal;font-weight:normal;font-size:40px;line-height:125%;font-family:Sans;letter-spacing:0px;word-spacing:0px;fill:#ffffff;fill-opacity:1;stroke:none;stroke-width:1px;stroke-linecap:butt;stroke-linejoin:miter;stroke-opacity:1"
       id="text4935"
       sodipodi:linespacing="125%"
       transform="translate(-6,4)"><textPath
         xlink:href="#path4939"
         id="textPath4941"
         style="font-style:normal;font-variant:normal;font-weight:normal;font-stretch:normal;font-size:125px;font-family:'Action Man';-inkscape-font-specification:'Action Man';fill:#ffffff;fill-opacity:1">NOVELTEE</textPath></text>
    <path
       style="fill:none;fill-rule:evenodd;stroke:none;stroke-width:1px;stroke-linecap:butt;stroke-linejoin:miter;stroke-opacity:1"
       d="m 124.28571,146.64792 c 200,-44.28571 240,55.71428 518.57143,-40.00001"
       id="path4939"
       inkscape:connector-curvature="0"
       sodipodi:nodetypes="cc" />
  </g>
</svg>
